<svg width="229" height="306" viewBox="0 0 229 306" fill="none" xmlns="http://www.w3.org/2000/svg">
<mask id="mask0_2_12748" style="mask-type:luminance" maskUnits="userSpaceOnUse" x="0" y="0" width="229" height="306">
<rect x="2.61816" y="2.21332" width="224" height="301" fill="white" stroke="white" stroke-width="4"/>
</mask>
<g mask="url(#mask0_2_12748)">
<path fill-rule="evenodd" clip-rule="evenodd" d="M260.068 210.024C262.567 208.719 265.008 207.302 267.41 205.827C269.102 204.815 267.604 202.267 265.869 203.188C264.982 203.659 264.098 204.134 263.212 204.602C263.91 204.001 264.557 203.347 265.137 202.634L265.097 202.594C267.333 200.591 264.46 196.812 261.917 198.457C259.674 200.082 257.41 201.741 254.836 202.811C249.503 205.072 243.621 205.446 237.897 205.511C235.802 205.354 233.801 205.716 231.769 206.121C232.566 202.925 234.56 200.512 235.618 197.417C236.398 194.292 231.886 192.164 230.287 195.168C229.895 195.905 229.521 196.651 229.155 197.401C225.699 200.544 219.927 200.267 216.442 203.641C214.456 205.403 213.484 207.793 213.101 210.192C212.84 211.821 213.245 213.454 212.26 214.897C207.496 221.632 199.97 232.278 196.147 239.691C193.441 222.077 186.214 200.291 178.749 184.185C176.28 179.034 173.455 174.001 169.748 169.635C170.168 168.179 168.685 165.594 167.742 166.39C164.838 162.844 159.706 161.927 155.579 160.164C150.008 157.783 145.386 152.833 143.114 147.207C140.195 136.494 133.008 135.133 123.042 135.607C113.504 135.595 106.446 139.673 104.365 149.38C100.137 156.747 90.1542 155.528 82.9722 157.479C77.7086 158.681 72.6005 160.539 67.7459 162.898C62.3454 157.777 43.0036 179.27 41.2455 184.801C42.2805 185.001 43.3091 185.243 44.3285 185.537C45.2364 185.799 44.8552 187.17 43.9395 186.951C42.8 186.677 41.6533 186.489 40.5011 186.358C40.466 186.468 40.4352 186.578 40.4123 186.686C40.283 186.677 40.1539 186.666 40.0245 186.657C40.3113 186.807 40.5873 186.98 40.8562 187.203C41.5064 187.743 40.66 188.784 39.9691 188.354C39.3182 187.867 38.4658 187.944 37.6851 187.781C37.6387 189.386 31.9102 187.59 31.0204 187.058C27.0657 186.564 22.9972 187.095 19.3053 185.188C14.3929 184.154 9.44361 183.01 4.58636 181.693C3.30048 182.194 2.09197 183.987 3.1133 185.303C3.68778 185.902 2.9493 186.88 2.22595 186.454C-0.200113 185.027 -2.07634 182.798 -3.66703 180.398C-4.41576 179.643 -5.74484 179.805 -6.75079 179.492C-6.88526 179.733 -6.96458 180.002 -6.96336 180.279C-11.2305 180.981 -8.18652 185.64 -6.04135 187.091C-7.17934 187.832 -7.22253 189.283 -7.12296 190.494C-7.36408 190.925 -7.44462 191.46 -7.23474 191.944C-6.43231 193.792 -4.6969 195.349 -3.37735 196.846C-1.92039 198.5 -0.621337 200.163 1.15141 201.504C7.90856 206.653 16.0629 209.532 24.4283 210.658C27.3985 211.114 31.6711 211.812 33.5102 214.323C33.059 217.303 32.2304 220.16 31.4788 223.066C30.4276 226.923 30.4992 230.961 30.4852 234.893C30.3383 234.775 30.0562 234.8 30.0142 235.025C29.7697 236.655 29.5879 238.321 28.5968 239.691C27.728 242.238 27.1499 244.954 26.825 247.63C25.5238 260.315 25.2131 273.374 28.147 285.862C29.2792 290.494 31.1205 294.897 33.6293 298.951C34.3773 300.16 35.5799 300.515 36.6599 300.277C40.2742 302.154 44.8273 302.756 48.723 302.279C62.0043 298.52 57.3767 307.571 75.9981 304.8C108.141 300.706 140.624 308.75 172.698 304.028C173.488 310.127 183.83 308.377 187.422 305.799C198.192 297.794 203.54 272.452 208.946 259.596C212.661 249.464 218.883 231.516 227.031 224.717C229.474 222.807 232.427 221.801 235.382 220.989C246.41 218.148 257.481 215.462 268.53 212.7C270.403 212.239 270.067 209.044 268.063 209.249C265.404 209.521 262.736 209.767 260.068 210.024Z" fill="white"/>
<path fill-rule="evenodd" clip-rule="evenodd" d="M14.5703 208.124C13.8235 208.031 13.0914 207.765 12.3641 207.555C11.2537 207.231 10.1653 206.853 9.09389 206.421C6.88284 205.535 4.73767 204.489 2.72673 203.208C-0.521516 201.136 -3.3915 198.482 -5.55618 195.286L-5.7048 195.063C-6.94061 193.182 -9.22019 189.003 -6.66415 187.574C-8.31153 186.198 -9.86855 183.727 -9.78069 181.819C-9.65623 179.121 -6.34697 179.158 -4.6362 180.302C-3.51603 181.051 -2.67651 182.1 -1.83456 183.132C-0.902301 184.278 0.0934063 185.371 1.12816 186.423C1.40271 186.701 1.68001 186.974 1.96211 187.242L2.24587 187.508C2.20196 187.404 2.16292 187.296 2.12875 187.186C1.55768 185.408 2.23857 183.093 4.01766 182.278C5.10641 181.779 6.2371 182.084 7.29213 182.507L7.45383 182.573C8.87418 183.161 10.3116 183.681 11.7905 184.098C17.8185 185.798 24.11 186.081 30.2868 186.93C32.6662 187.26 35.0896 187.674 37.4568 188.284C38.3598 184.451 40.5732 180.778 42.9747 177.755C54.4741 163.295 73.4389 158.516 90.7881 155.422C92.3696 155.142 93.6802 157.235 94.6002 156.74C96.3452 155.803 97.8802 154.476 99.2273 153.034C102.1 149.957 104.138 146.339 106.532 142.912C107.715 141.218 110.439 142.733 109.341 144.551L108.803 145.439C106.587 149.078 104.134 152.827 100.958 155.649C99.2688 157.147 97.3946 158.33 95.2518 159.069C93.6289 159.628 91.352 160.099 89.5753 159.557L89.3621 159.247C89.4326 159.35 89.5037 159.454 89.5753 159.557C94.2121 166.274 100.03 171.958 106.161 177.323C112.349 182.735 119.024 187.581 125.74 192.32L126.299 192.715C137.24 184.737 146.482 174.332 152.966 162.444C151.607 162.28 150.262 161.409 149.101 160.76C147.702 159.975 146.387 159.038 145.362 157.789C143.129 155.068 143.419 151.563 143.016 148.262C142.992 148.057 143.263 148.005 143.387 148.108C144.598 149.113 145.023 150.76 145.528 152.182C146.084 153.746 146.714 155.034 147.99 156.134C149.179 157.159 150.628 157.913 152.036 158.584C152.763 158.928 156.368 159.813 156.778 160.545C163.006 159.084 169.073 161.609 173.688 165.869C178.147 169.984 181.42 175.335 184.309 180.617C187.391 186.252 189.917 192.127 192.094 198.165C194.3 204.293 195.992 210.556 196.921 217.006C197.706 222.445 198.187 227.969 198.499 233.468L198.537 234.155C203.144 226.926 207.867 219.773 212.687 212.683C211.591 209.758 212.804 206.772 214.856 204.513C217.131 202.012 220.276 200.851 223.286 199.499L223.681 199.321C225.131 198.659 226.577 197.931 227.83 196.94C229.035 195.984 229.921 194.666 231.19 193.786C233.035 192.502 236.383 192.776 236.469 195.579C236.513 197.119 235.851 198.807 235.246 200.19C234.56 201.754 233.636 203.171 232.537 204.474C232.487 204.535 232.431 204.583 232.375 204.62L232.332 204.647C233.85 204.898 235.38 205.101 236.94 205.172C240.086 205.316 243.266 205.084 246.345 204.42C249.499 203.742 252.554 202.64 255.39 201.102C257.813 199.79 260.058 198.092 262.811 197.692C263.065 197.653 263.321 197.628 263.585 197.614C264.024 197.589 264.463 198.106 264.29 198.54C264.195 198.78 264.095 199.016 263.985 199.256C263.033 201.351 261.573 203.384 259.753 204.927L259.612 205.045C260.254 204.823 260.886 204.574 261.508 204.293C265.166 202.647 268.485 200.158 272.407 199.158C272.593 199.109 272.781 199.065 272.968 199.024C274.181 198.763 274.821 200.08 274.108 200.983C273.993 201.129 273.879 201.273 273.759 201.417C272.009 203.588 270.079 205.603 267.951 207.414C267.221 208.033 266.47 208.633 265.703 209.207C265.38 209.45 265.056 209.688 264.728 209.922L264.566 210.036C264.949 209.766 265.327 209.49 265.703 209.207C268.105 208.48 270.472 207.619 272.788 206.665C273.708 206.287 274.423 207.218 274.521 207.985C274.848 210.551 271.997 212.408 270.142 213.642C268.283 214.882 266.235 215.823 264.139 216.579C260.108 218.036 255.875 218.697 251.648 219.289L249.595 219.575C241.469 220.711 232.982 222.069 227.151 228.39C223.883 231.932 221.672 236.333 219.649 240.664C217.629 244.99 215.854 249.43 214.17 253.894C212.426 258.515 210.905 263.221 209.29 267.888C207.806 272.173 206.033 276.404 204.278 280.592L204.001 281.252C200.274 290.153 195.823 298.535 189.619 305.966C188.597 307.193 186.945 305.452 187.889 304.236C194.378 295.873 198.893 286.005 202.62 276.161C204.316 271.682 205.736 267.095 207.366 262.591L208.337 259.916C209.632 256.35 210.938 252.788 212.301 249.249C214.026 244.772 215.923 240.349 218.092 236.07L218.322 235.619C220.447 231.491 222.97 227.423 226.444 224.299C232.695 218.673 241.014 217.323 249.058 216.254L251.588 215.921C254.989 215.469 258.399 214.971 261.706 214.062C263.614 213.54 265.479 212.871 267.231 211.949C267.929 211.583 268.61 211.181 269.269 210.742C267.39 211.293 265.484 211.744 263.543 212.098C262.594 212.271 261.654 212.401 260.717 212.491C258.304 212.73 255.91 212.72 253.438 212.591C253.228 212.578 253.159 212.249 253.384 212.208C255.105 211.902 256.829 211.519 258.546 211.104L259.06 210.978C259.07 210.693 259.182 210.39 259.417 210.102C260.271 209.063 261.894 208.531 263.019 207.797C264.197 207.028 265.34 206.199 266.428 205.311C267.424 204.498 268.38 203.639 269.3 202.742L269.576 202.471C269.485 202.562 269.393 202.652 269.3 202.742C266.816 203.889 264.461 205.36 261.867 206.267C259.805 206.992 257.642 207.48 255.461 207.653L255.325 207.663L255.19 207.672C252.913 207.836 250.621 207.77 248.378 208.263C248.127 208.319 248.049 207.982 248.273 207.887C250.233 207.072 252.271 206.757 254.331 206.377C254.375 206.216 254.487 206.072 254.682 205.979L255.209 205.728C256.778 204.974 258.241 204.214 259.546 202.991C260.698 201.91 261.657 200.646 262.377 199.246C259.495 199.878 256.964 202.061 254.343 203.288C251.488 204.628 248.466 205.589 245.362 206.136L245.008 206.196C239.207 207.163 232.231 207.04 227.034 204.025C226.868 203.927 226.988 203.706 227.159 203.732C228.633 203.974 230.092 204.259 231.551 204.513C231.266 204.252 231.139 203.783 231.468 203.408C232.779 201.906 233.816 200.19 234.478 198.312L234.605 197.945C234.91 197.073 235.426 195.721 234.9 194.935C234.397 194.186 233.213 194.288 232.506 194.605C231.034 195.269 230.055 196.926 228.816 197.926C227.464 199.019 225.926 199.829 224.352 200.553L224.02 200.704C221.297 201.929 218.388 202.959 216.247 205.12C215.095 206.282 214.105 207.733 213.773 209.361C213.621 210.107 213.621 210.876 213.821 211.615C213.98 212.193 214.312 212.549 214.122 213.137C213.873 213.896 212.992 214.803 212.538 215.479C212.011 216.26 211.486 217.043 210.961 217.826C209.914 219.392 208.872 220.964 207.83 222.532C205.746 225.675 203.684 228.831 201.639 231.998C200.973 233.029 200.31 234.062 199.649 235.095L198.659 236.646L198.136 237.463L197.243 238.866C197.275 238.995 197.273 239.132 197.231 239.251C197.079 239.684 196.794 239.98 196.44 240.195L196.377 240.232C191.169 248.461 186.044 256.744 180.868 264.992C180.592 267.51 180.333 270.03 180.109 272.55C179.599 278.254 179.25 283.973 179.138 289.699C179.084 292.47 179.306 295.258 179.426 298.028C179.484 299.349 179.564 300.669 179.669 301.989L179.746 302.924C179.849 304.209 179.908 305.485 179.445 306.711C179.035 307.786 177.786 308.028 177.046 307.208C167.399 306.82 157.745 306.525 148.09 306.342C130.809 306.01 113.521 306.061 96.2377 306.396C87.557 306.564 78.8739 306.801 70.1956 307.093C65.9199 307.235 61.6418 307.435 57.3637 307.493C55.0587 307.525 51.4311 306.686 51.2451 304.094L51.2405 304.014C50.9526 304.093 50.6548 304.156 50.3498 304.202C50.214 304.223 50.0835 304.217 49.963 304.189L49.9032 304.173C46.4673 305.22 42.1212 303.726 38.8563 302.856L38.5868 302.785C35.4703 301.972 32.9664 300.811 30.9238 298.23C27.3485 293.71 26.1283 287.639 25.4938 282.045C24.8983 276.78 24.8641 271.418 25.5889 266.163C25.1618 261.882 25.5791 257.464 26.0648 253.206C26.304 251.101 26.5846 248.998 26.9214 246.904C27.1093 245.736 27.3558 244.579 27.6072 243.425C27.7075 242.964 27.7911 242.468 27.9183 241.988L27.9757 241.784C27.5852 241.835 27.1581 241.749 26.7457 241.523C25.7646 240.984 25.4791 239.893 25.462 238.849C25.4083 235.702 25.7841 232.464 26.116 229.337C26.4504 226.214 26.9092 223.079 27.5095 219.995L27.6649 219.2C28.1198 216.893 28.6403 214.512 29.5571 212.344C26.1137 211.759 22.6799 211.137 19.3389 210.078C17.7087 209.558 16.1029 208.912 14.5703 208.124ZM194.3 240.876C194.247 240.888 194.195 240.903 194.144 240.918C192.768 241.303 191.377 241.63 189.99 241.981C187.594 242.584 185.251 243.257 183.023 244.304C182.556 250.193 181.864 256.063 181.206 261.937L181.075 263.111C182.086 261.238 183.12 259.378 184.202 257.542C187.494 251.942 190.862 246.387 194.3 240.876ZM28.8152 241.459C28.8225 242.159 28.6761 242.887 28.598 243.56C28.4711 244.653 28.3686 245.751 28.2392 246.843C27.9757 249.039 27.7512 251.237 27.5876 253.443C27.4827 254.851 27.4144 256.263 27.3534 257.676C28.7371 252.506 30.5699 247.449 32.3124 242.384C32.0211 242.353 31.7234 242.282 31.4162 242.2L30.8992 242.061C30.5943 241.983 29.6053 241.739 28.8152 241.459ZM198.659 236.646L198.669 236.878C198.705 237.7 198.212 238.163 197.614 238.283C197.961 237.736 198.31 237.19 198.659 236.646ZM40.3219 197.68C41.7789 197.809 43.2066 198.119 44.5683 198.655L44.6997 198.707C45.707 199.095 47.1796 199.584 47.5091 200.658C47.6018 200.963 47.3529 201.214 47.0674 201.239C45.974 201.327 44.6855 200.156 43.6727 199.76C42.5452 199.321 41.364 198.994 40.1682 198.821C37.4812 198.428 34.6796 198.726 32.1513 199.705C32.0024 199.763 31.9097 199.526 32.0439 199.455C34.5917 198.07 37.4251 197.423 40.3219 197.68ZM9.44776 204.657C9.27927 204.508 9.11088 204.352 8.94493 204.196C7.63649 202.959 6.47783 201.514 5.61992 199.928L5.39413 199.498C4.69539 198.146 3.83737 196.219 5.47947 195.245C6.46054 194.662 7.64172 194.808 8.73505 195.162C8.80582 195.184 8.87659 195.208 8.94737 195.232C9.43546 195.403 9.90647 195.608 10.3262 195.803C12.1492 196.64 13.7575 197.858 15.4414 198.931C17.266 200.095 19.0676 200.839 21.1734 201.275L21.3717 201.315C23.3485 201.705 25.4912 201.956 26.8701 203.581C27.2166 203.991 26.8994 204.759 26.3015 204.557C22.4895 203.271 18.4554 202.988 14.9558 200.878C13.5061 200.004 12.1346 199.002 10.6532 198.175C9.86742 197.735 9.05608 197.351 8.19145 197.087L7.7191 196.948C7.44242 196.868 7.11214 196.788 6.89006 196.867C6.46731 197.014 6.60223 197.24 6.73303 197.634L6.74607 197.675C7.77351 200.851 10.7021 203.51 13.4158 205.269C14.0382 205.674 14.6751 206.045 15.3243 206.389C19.7185 208.731 24.6352 209.82 29.4642 211.114C29.4642 211.114 32.2563 211.893 33.1812 212.186C34.2111 212.1 35.3849 212.464 36.161 212.898C36.9151 213.32 37.5228 213.886 37.9816 214.552C37.9816 214.552 38.4233 214.921 38.5038 215.492C38.7357 216.021 38.8919 216.592 38.97 217.187C39.0139 217.536 38.926 217.804 38.7601 217.994C39.2592 225.653 37.1899 233.269 34.8568 240.547L34.6256 241.265L34.4771 241.72C31.961 249.437 29.0739 257.098 27.7853 265.143C26.9239 270.518 26.9507 276.08 27.5828 281.479L27.6274 281.852C28.2501 286.956 29.4484 292.683 32.6955 296.791C34.3518 298.887 36.3141 299.819 38.8228 300.494L38.9602 300.531C41.2298 301.128 43.5727 301.975 45.9131 302.231C48.0851 302.468 49.9057 301.66 51.8605 300.904L51.8629 300.902C55.9799 297.259 57.8493 291.955 59.2306 286.602C62.8108 272.75 62.3666 258.371 60.3362 244.316C59.277 236.973 57.8371 229.693 56.4021 222.415C55.6846 218.778 54.911 215.148 54.2692 211.498L53.888 209.35C53.6776 208.156 53.4742 206.962 53.3003 205.762C53.066 204.15 52.9953 202.564 52.9147 200.941C50.9428 197.675 48.0802 194.984 44.7636 193.054C42.389 191.671 39.8754 190.712 37.2811 190.017C29.8646 188.018 21.7793 188.16 14.3164 186.623C11.8093 186.107 9.42949 185.342 7.05093 184.424L6.72657 184.298C5.63569 183.873 4.52284 183.637 3.98106 184.923C3.59546 185.837 3.82487 186.789 4.40326 187.557C5.82116 189.441 8.67162 190.314 10.8168 190.992C12.1078 191.402 13.4256 191.727 14.7581 191.968C16.0906 192.21 17.428 192.271 18.7068 192.742C19.1998 192.922 19.2974 193.705 18.7068 193.844C17.0863 194.223 15.4561 193.898 13.8454 193.583C12.0761 193.234 10.3336 192.739 8.63989 192.112C8.32751 191.997 8.0042 191.876 7.67496 191.747L7.42699 191.649C7.68323 191.834 7.93948 192.017 8.19817 192.2C8.2665 192.249 8.22501 192.378 8.13472 192.346C4.15237 190.861 0.528907 188.181 -2.27816 185.011L-2.41783 184.852C-3.40621 183.72 -5.65876 180.294 -7.55743 181.248C-9.34034 182.143 -6.30111 185.592 -5.14611 187.002L-5.01199 187.167C-3.69902 187.201 -2.42754 188.018 -1.3635 188.677C0.483928 189.821 2.41433 190.807 4.38134 191.729C8.29096 193.566 12.4422 194.862 16.3103 196.791C16.3616 196.818 16.3225 196.884 16.2737 196.877C13.8113 196.484 11.3757 195.857 8.99625 195.079L8.89009 195.046L8.78393 195.01C7.29769 194.522 5.83097 193.971 4.38866 193.383C2.78528 192.73 1.21851 191.995 -0.3019 191.163C-1.67832 190.412 -3.20605 189.058 -4.80211 188.858C-4.97294 188.836 -5.12425 188.833 -5.25603 188.846C-7.08879 188.999 -5.57327 192.034 -5.06077 192.942C-4.22369 194.432 -3.21334 195.808 -2.05413 197.065C0.296037 199.617 3.14405 201.639 6.22635 203.213C7.27819 203.749 8.35443 204.223 9.44776 204.657Z" fill="black"/>
<path fill-rule="evenodd" clip-rule="evenodd" d="M165.753 103.08C165.227 98.4657 165.907 88.8202 165.953 88.2342C166.241 84.5296 164.505 69.9007 161.222 71.2486C155.716 66.8911 148.382 65.9289 141.524 65.4693C127.28 64.5144 112.127 66.7064 101.128 76.2894C95.688 81.2661 90.3924 88.5043 90.8181 96.0409C85.8759 103.185 78.9086 112.984 85.0663 121.336C87.1594 124.004 90.4861 124.998 93.1155 127.018C98.4044 131.283 101.723 137.403 107.062 141.642C121.207 154.349 145.225 157.003 159.122 142.551C169.869 132.083 168.131 116.424 166.241 103.08C164.97 94.109 166.778 112.083 165.753 103.08Z" fill="white"/>
<path fill-rule="evenodd" clip-rule="evenodd" d="M122.496 45.9001C126.306 45.1316 130.217 44.6534 134.108 44.7974L134.408 44.809C137.335 44.926 141.042 45.1847 143.595 46.8862C143.742 46.7388 143.978 46.6632 144.193 46.7654C147.227 48.2134 150.565 49.2602 153.76 50.3005C156.94 51.3357 160.24 52.019 163.573 52.2944C164.827 52.3981 165.9 53.7519 165.106 54.9661C164.917 55.2555 164.733 55.5477 164.55 55.8407C164.857 55.8088 165.163 55.7758 165.47 55.7449C166.478 55.6434 167.486 56.7195 167.426 57.7012C167.389 58.3187 167.322 58.9289 167.224 59.5317C167.608 59.5236 167.99 59.5812 168.359 59.7371C170.227 60.5259 170.097 62.7506 169.957 64.4432C169.763 66.7921 168.885 69.2801 167.253 71.0381C168.471 72.3031 169.334 73.8137 169.848 75.6078C170.221 76.9179 170.429 78.3134 170.327 79.6772L170.294 80.0855C170.167 81.5655 169.915 83.204 168.85 84.2686C168.303 84.8176 167.63 85.0176 166.988 84.9542C167.376 88.3648 167.625 91.795 167.859 95.213L167.969 96.8466C168.492 104.746 168.884 112.697 168.782 120.61C168.686 128.004 167.225 135.182 162.688 141.186C158.556 146.653 152.623 150.684 145.912 152.216C142.295 153.043 138.603 153.101 134.942 152.574C133.168 152.318 131.382 151.925 129.698 151.306C127.833 150.618 126.493 149.605 125.239 148.088C124.646 147.368 124.931 145.836 126.113 145.98C127.899 146.196 129.531 146.457 131.244 146.986L131.489 147.063C133.195 147.61 134.962 148.017 136.746 148.19C140.399 148.544 144.108 148.188 147.608 147.08C153.307 145.275 158.215 141.252 161.36 136.197C165.094 130.205 165.516 123.403 165.462 116.514C165.405 108.954 165.159 101.389 164.757 93.8367L164.689 92.5781C164.476 88.6917 164.271 84.8029 164.091 80.9141C164.035 79.6943 163.95 78.4647 163.796 77.2473C162.388 76.4227 161.126 75.2858 160.304 73.883C158.651 74.5661 156.914 75.0589 155.315 75.4517C151.612 76.3622 147.767 76.5832 143.998 76.0131C142.981 76.4329 141.944 76.8021 140.891 77.1197C140.607 77.2458 140.322 77.3698 140.038 77.4913C137.5 78.5769 134.925 79.4967 132.246 80.17L131.587 80.3341C130.177 80.6816 128.646 81.0238 127.145 81.1312C126.899 81.2264 126.633 81.3069 126.342 81.3776C124.975 81.7094 123.557 81.8143 122.157 81.6972C120.792 81.5826 119.806 80.2042 120.558 78.9136C121.107 77.9719 121.661 77.0326 122.22 76.0958C120.275 76.9057 118.267 77.5791 116.241 78.15C114.196 78.7257 112.122 79.2112 110.044 79.6577C108.934 79.8943 107.819 80.1041 106.711 80.3408C105.918 80.5091 104.7 80.5969 104.053 81.119C103.338 81.6924 103.136 83.0293 102.865 83.8539C102.508 84.9249 102.174 86.0008 101.869 87.0889C101.262 89.2602 100.764 91.4632 100.378 93.6882C99.9925 95.9156 99.7336 98.1649 99.5896 100.422C99.4458 102.676 99.509 104.945 99.2774 107.189C99.1527 108.38 97.8742 108.992 96.9297 108.16C96.8189 108.063 96.7072 107.964 96.5967 107.864L96.4319 107.714C95.6238 106.982 94.8404 106.206 94.194 105.333C94.0768 105.172 93.9646 105.003 93.8596 104.833C93.8425 104.833 93.8279 104.828 93.8108 104.815L93.6315 104.681C91.6578 103.212 88.3603 101.297 86.4357 103.737C85.8225 104.514 85.5085 105.504 85.2479 106.459L84.7906 108.168C84.4948 109.283 84.2165 110.405 84.0536 111.546C83.6851 114.103 83.8706 117.05 85.6304 119.1C86.3332 119.919 87.3021 120.505 88.383 120.659C88.986 120.742 89.5815 120.639 90.1794 120.563C90.7871 120.488 91.3725 120.61 91.9805 120.551C92.9469 120.456 93.3691 121.613 93.0079 122.34C92.8127 122.73 92.583 123.067 92.3221 123.352C92.5318 123.533 92.7321 123.728 92.9249 123.933C93.496 124.116 94.0082 124.508 94.3916 125.028C94.7016 125.448 94.8624 125.904 94.8895 126.385C94.9234 126.504 94.9527 126.626 94.9798 126.75L95.5034 127.6C95.6185 127.786 95.7332 127.97 95.8483 128.151C97.1808 130.249 98.66 132.025 100.498 133.699C102.267 135.309 104.187 136.751 105.85 138.478L106.045 138.683C107.595 140.315 109.228 142.291 108.622 144.665C108.466 145.275 107.614 145.714 107.058 145.302C105.269 143.974 104.368 141.871 102.85 140.261C101.288 138.602 99.5578 137.112 97.9913 135.458C96.5097 133.896 95.3407 132.127 94.46 130.181C94.1083 130.569 93.596 130.844 92.8859 130.952C91.6656 131.135 90.5281 130.42 89.9964 129.363C89.6545 129.515 89.3057 129.651 88.954 129.759C87.1042 130.325 85.9403 128.268 86.6383 126.748C87.0114 125.933 87.4776 125.226 88.0562 124.63C86.2476 124.382 84.4075 123.447 83.219 122.281C80.237 119.351 79.827 114.947 80.4981 111.032C80.8544 108.956 81.4692 106.855 82.2674 104.906C82.4063 104.567 82.5554 104.225 82.7187 103.888C82.6284 103.886 82.5356 103.847 82.4771 103.771C81.9377 103.035 81.2815 102.432 80.881 101.607C80.5125 100.851 80.1027 100.085 79.8121 99.297C79.2144 97.6843 78.9216 95.8643 78.7263 94.159C78.3236 90.6679 78.4796 87.1987 79.0143 83.7295C79.9243 77.8206 82.1227 72.166 85.3614 67.2042C85.1851 67.1116 85.0161 66.9997 84.8586 66.8675L84.7809 66.7997L84.6544 66.6855C83.7302 65.8494 83.81 64.2825 84.6544 63.4356L84.9211 63.1684C85.2588 62.833 85.55 62.5673 86.0955 62.2022C86.1761 62.1482 86.2583 62.0975 86.3415 62.0502C86.056 61.5227 85.9569 60.906 86.1558 60.2255C86.8489 57.8552 90.2607 57.9391 92.4232 58.9728C94.8155 56.8383 97.4683 54.9854 100.344 53.485C107.192 49.9133 114.935 47.4224 122.496 45.9001ZM87.0972 108.331C88.376 107.914 90.0745 108.79 91.224 109.317C92.6809 109.985 93.9207 110.973 95.1214 112.017C95.7193 112.539 95.8264 113.393 95.6778 114.123C95.6629 114.196 95.6485 114.272 95.6312 114.347C95.4726 115.125 94.6038 115.738 93.835 115.716C92.2268 115.672 91.4607 114.284 90.5502 113.108C90.443 113.298 90.3088 113.474 90.1426 113.606L90.0304 113.693C89.6526 113.981 89.2361 114.211 88.7369 114.189C88.3831 114.172 88.0441 114.081 87.7314 113.918C86.9505 113.506 86.6066 112.496 86.8187 111.673C86.9505 111.156 87.2531 110.751 87.6485 110.471L87.5011 110.37C87.1858 110.15 86.8982 109.919 86.6741 109.578L86.6235 109.497H86.643C86.399 109.078 86.5578 108.507 87.0972 108.331Z" fill="black"/>
<path fill-rule="evenodd" clip-rule="evenodd" d="M141.362 133.07C139.722 132.401 138.258 131.284 137.188 129.859C136.816 129.363 136.719 128.84 136.797 128.361C136.885 127.823 137.204 127.335 137.638 127.008C138.074 126.68 138.619 126.518 139.146 126.6C139.604 126.672 140.06 126.923 140.42 127.443L140.496 127.546C141.132 128.407 141.961 129.113 142.906 129.568C143.816 130.007 144.834 130.211 145.888 130.092C147.895 129.866 149.279 128.781 150.749 127.307C150.931 127.121 151.113 126.929 151.297 126.734C151.412 126.558 151.573 126.444 151.751 126.384C151.949 126.318 152.173 126.322 152.378 126.394C152.576 126.463 152.753 126.593 152.872 126.767C152.984 126.933 153.048 127.137 153.028 127.372C152.893 128.899 152.094 130.262 150.96 131.332C149.7 132.521 148.03 133.343 146.458 133.631C144.726 133.949 142.961 133.721 141.362 133.07V133.07ZM147.275 109.512C149.118 110.632 151.926 113.243 149.943 116.019C147.61 118.467 144.25 115.661 142.594 114.391C141.059 113.408 139.334 115.938 140.758 117.086C152.722 125.941 157.578 109.805 148.207 108.196C147.175 108.018 146.792 109.166 147.275 109.512ZM125.835 99.2119C126.039 96.6853 129.888 96.1116 130.271 98.6117C130.614 100.851 130.21 102.909 129.201 104.925C128.237 106.851 125.813 105.953 125.63 104.199C125.385 101.847 125.709 100.784 125.835 99.2119ZM155.136 98.0933C155.673 97.3907 156.448 96.9111 157.376 97.1821C160.277 98.0294 159.422 102.146 158.403 104.15C157.85 105.238 156.061 105.514 155.252 104.556C153.934 102.993 153.303 99.8731 154.978 98.3341C155.024 98.2546 155.074 98.1743 155.136 98.0933ZM129.16 88.1563L129.619 88.0762C131.036 87.8311 132.798 87.5957 133.801 88.7348C134.333 89.3389 134.516 90.4616 133.801 91.0398C132.544 92.0571 131.153 91.6629 129.647 91.749C128.405 91.8202 127.212 92.0257 126.016 92.3674C123.392 93.1172 121.254 94.4858 119.012 95.9886C118.718 96.1858 118.418 95.8098 118.559 95.5349C119.852 93.0018 122.359 90.921 124.871 89.6526C126.211 88.9756 127.678 88.414 129.16 88.1563ZM152.492 87.0216L152.843 87.0934C156.659 87.8908 161.617 89.4837 163.425 93.2309C163.493 93.7608 163.421 93.8744 163.361 93.9485L163.342 93.9732C163.293 94.0366 163.254 94.1239 163.024 94.196C162.961 94.1809 162.896 94.1648 162.831 94.1477C162.003 93.9307 161.347 93.6318 160.713 93.3215L160.025 92.9827C159.227 92.5915 158.422 92.2145 157.568 91.9362C155.747 91.3424 153.874 90.9241 151.972 90.7007C151.56 90.6524 151.162 90.5133 150.849 90.2749C150.552 90.0486 150.325 89.7353 150.221 89.3189C150.087 88.7799 150.126 88.3719 150.415 87.8857C150.632 87.5206 150.944 87.2675 151.301 87.1222C151.665 86.974 152.08 86.9391 152.492 87.0216Z" fill="black"/>
<path fill-rule="evenodd" clip-rule="evenodd" d="M173.211 103.149C170.884 118.882 154.642 120.622 151.756 105.002C152.22 104.8 152.553 104.401 152.483 103.626C152.467 100.222 153.524 96.6244 156.595 94.7314C159.769 92.7782 163.484 92.5845 167.157 92.6338C174.167 92.4669 174.019 98.3238 173.211 103.149M149.214 96.306C147.014 96.2133 144.231 96.2909 142.26 97.6307C141.718 96.1723 140.311 94.6151 138.888 93.7824C144.175 93.9371 149.617 93.4169 154.943 93.0132C153.668 93.8819 152.482 95.1872 151.711 96.6961C150.995 96.3148 149.971 96.3504 149.214 96.306M139.517 104.817C133.417 125.806 118.191 116.658 116.531 113.968C113.537 109.516 112.974 98.6954 115.582 95.8022C119.315 93.1859 124.6 93.8593 129.011 93.7951C137.113 93.9044 142.868 96.3275 139.517 104.817M180.414 95.1625C178.756 94.9459 176.985 94.9022 175.444 95.6317C174.97 93.6158 173.481 91.9305 171.799 91.1888C171.595 90.9336 171.626 90.7965 170.931 90.8348C166.661 89.552 161.883 90.2307 157.78 91.5462C151.3 92.0917 144.502 92.5218 137.968 93.2735C131.847 90.5255 113.374 90.1227 112.226 96.8959C110.782 96.68 108.323 95.5438 107.109 97.085C98.2088 95.5765 89.0119 97.6729 80.0728 98.6066C77.8227 99.0208 76.6637 103.485 79.2179 103.424C80.6538 103.034 79.1737 100.644 81.1073 100.464C89.7321 99.5227 98.1683 98.1867 106.881 98.0303C106.578 99.5344 112.644 99.6322 112.734 98.7539C112.747 98.7605 112.761 98.7649 112.774 98.7708C111.275 104.355 112.628 112.392 115.337 115.855C119.132 120.389 128.661 121.69 132.886 118.773C138.336 116.08 144.006 102.564 142.414 98.0733C145.304 97.1574 148.162 97.4324 151.161 97.8988C150.475 99.8381 149.289 104.612 150.995 105.026C150.682 114.504 159.31 120.418 167.265 116.53C174.15 113.299 176.557 103.073 175.715 96.8654C176.572 98.521 183.768 96.7185 180.414 95.1625" fill="black"/>
</g>
</svg>
